# xmcd
#
# Track frame offsets: 
#        150
#        14655
#        25805
#        45287
#        65347
#        81997
#        97135
#
# Disc length: 1554 seconds
#
# Revision: 0
# Processed by: cddbd v1.5.2PL0 Copyright (c) Steve Scherf et al.
# Submitted via: ExactAudioCopy v0.99pb4
#
DISCID=53061007
DTITLE=Various Artist - Absolute Country EVA Promo CD
DYEAR=1993
DGENRE=Country
TTITLE0=Carlene Carter - Every Little Thing
TTITLE1=Alan Jackson - Chattahoochee
TTITLE2=Trisha Yearwood and Don Henley - Walkaway Joe
TTITLE3=Dwight Yoakam - A Thousand Miles From Nowhere
TTITLE4=Tanya Tucker and Delbert McClinton - Tell Me About It
TTITLE5=Doug Supernaw - The Perfect Picture (To Fit My Frame Of Mind)
TTITLE6=Nanci Griffith and John Prine - Speed Of The Sound Of Loneliness
EXTD=
EXTT0=
EXTT1=
EXTT2=
EXTT3=
EXTT4=
EXTT5=
EXTT6=
PLAYORDER=
